<?xml version="1.0" standalone="no"?>
<!DOCTYPE svg PUBLIC "-//W3C//DTD SVG 20010904//EN"
 "http://www.w3.org/TR/2001/REC-SVG-20010904/DTD/svg10.dtd">
<svg version="1.0" xmlns="http://www.w3.org/2000/svg"
 width="500.000000pt" height="500.000000pt" viewBox="0 0 500.000000 500.000000"
 preserveAspectRatio="xMidYMid meet">
<metadata>
Created by potrace 1.14, written by Peter Selinger 2001-2017
</metadata>
<g transform="translate(0.000000,500.000000) scale(0.100000,-0.100000)"
fill="#000000" stroke="none">
<path d="M2460 4265 c-8 -2 -49 -9 -90 -15 -261 -42 -539 -194 -728 -396 -444
-474 -492 -1171 -119 -1716 l67 -98 -105 -216 c-58 -119 -105 -223 -105 -230
0 -8 8 -14 19 -14 10 0 140 32 287 70 148 39 280 69 294 67 14 -3 65 -21 113
-41 297 -125 686 -134 977 -21 226 87 388 196 526 355 323 370 431 869 287
1324 -110 348 -358 638 -688 804 -57 28 -237 90 -315 108 -59 14 -382 28 -420
19z m351 -180 c472 -82 852 -463 944 -947 20 -107 20 -318 0 -423 -22 -120
-59 -230 -111 -330 -68 -135 -213 -323 -237 -308 -6 3 -7 2 -4 -4 6 -9 -26
-43 -83 -88 -25 -20 -25 -20 -10 0 24 32 38 45 48 45 16 0 24 32 11 44 -9 8
-10 7 -6 -6 4 -11 0 -19 -14 -23 -10 -4 -19 -10 -19 -15 0 -5 -14 -16 -30 -25
-24 -12 -35 -13 -52 -4 -18 10 -20 9 -15 -4 4 -12 2 -14 -10 -10 -11 4 -14 2
-9 -5 4 -7 1 -12 -8 -12 -9 0 -16 4 -16 8 0 5 -7 9 -14 9 -11 0 -12 -5 -5 -18
12 -23 12 -32 -1 -24 -5 3 -10 0 -10 -7 0 -9 -3 -9 -10 2 -6 10 -10 11 -10 3
0 -7 -7 -13 -15 -13 -21 0 -19 -20 3 -21 9 0 12 -3 5 -5 -7 -3 -21 0 -33 6
-15 8 -20 8 -18 -1 2 -7 -16 -17 -39 -23 -23 -6 -45 -14 -48 -18 -9 -9 -36 2
-30 12 3 5 -4 6 -16 3 -16 -5 -18 -8 -7 -15 10 -8 9 -9 -4 -5 -9 3 -29 2 -45
-3 -15 -4 -22 -9 -15 -9 6 -1 12 -6 12 -11 0 -7 -6 -7 -18 -1 -12 6 -37 5 -76
-4 -112 -26 -265 -37 -360 -25 -49 6 -90 9 -92 7 -2 -2 19 -9 46 -16 48 -12
73 -34 28 -24 -19 4 -20 3 -8 -7 12 -8 6 -9 -25 -5 -50 8 -170 42 -210 59 -97
43 -81 44 -355 -28 -139 -37 -254 -65 -257 -63 -2 3 38 89 90 192 l95 187 -59
82 c-173 238 -258 508 -246 776 14 309 132 574 352 795 163 164 353 268 575
315 108 23 324 26 441 5z m479 -2114 c0 -6 -4 -12 -8 -15 -5 -3 -9 1 -9 9 0 8
4 15 9 15 4 0 8 -4 8 -9z m-40 -19 c0 -10 -7 -19 -15 -19 -18 0 -19 4 -2 22
16 19 17 18 17 -3z m-220 -126 c0 -11 -19 -15 -25 -6 -3 5 1 10 9 10 9 0 16
-2 16 -4z m-573 -72 c-3 -3 -12 -4 -19 -1 -8 3 -5 6 6 6 11 1 17 -2 13 -5z
m76 -11 c-7 -2 -19 -2 -25 0 -7 3 -2 5 12 5 14 0 19 -2 13 -5z"/>
<path d="M2555 3919 c-176 -11 -327 -76 -458 -199 -110 -103 -183 -223 -218
-358 -16 -64 -19 -111 -19 -314 0 -266 10 -341 62 -466 76 -183 207 -329 379
-421 143 -77 314 -121 471 -121 75 0 83 2 148 41 85 50 222 177 289 268 62 84
122 210 147 311 16 65 19 115 19 365 0 218 -3 302 -14 340 -63 225 -209 400
-412 495 -119 55 -217 70 -394 59z m195 -126 c23 -9 23 -11 5 -16 -11 -3 -36
-8 -55 -12 -84 -16 -291 -88 -344 -120 -137 -82 -247 -216 -291 -352 -17 -52
-18 -53 -56 -53 -38 0 -39 1 -39 34 0 51 35 154 75 220 89 148 222 249 390
297 67 19 270 20 315 2z m-505 -714 c59 -11 185 -72 212 -101 17 -19 17 -20
-2 -35 -57 -43 -101 -57 -170 -58 -58 0 -78 4 -116 27 -25 15 -57 44 -71 65
-26 37 -51 107 -42 116 7 7 131 -3 189 -14z m955 -7 c0 -15 -15 -52 -32 -82
-26 -42 -45 -61 -88 -83 -48 -25 -63 -28 -116 -24 -67 5 -167 50 -172 77 -3
19 83 73 164 101 32 12 97 24 144 29 47 4 88 8 93 9 4 0 7 -12 7 -27z m-1188
-199 c28 -29 39 -52 48 -98 24 -118 91 -249 175 -343 53 -59 151 -134 268
-204 54 -33 72 -47 52 -43 -323 71 -556 333 -590 663 -3 34 -2 62 2 62 5 0 25
-17 45 -37z m558 -142 l0 -110 -45 -7 c-25 -3 -48 -4 -51 -1 -3 2 3 55 13 116
l17 111 33 0 33 0 0 -109z m248 -263 c16 -14 15 -43 -2 -57 -9 -8 -70 -11
-196 -9 -161 3 -184 5 -194 21 -8 12 -8 22 0 35 9 13 30 18 95 22 115 7 281 0
297 -12z"/>
<path d="M3066 1935 c-11 -8 -16 -15 -10 -15 5 0 18 7 28 15 11 8 16 15 10 15
-5 0 -18 -7 -28 -15z"/>
<path d="M3013 1908 c-13 -6 -23 -15 -23 -20 0 -5 11 -1 25 8 37 24 35 30 -2
12z"/>
<path d="M2194 1838 c-5 -8 -2 -9 9 -5 9 3 19 2 22 -3 3 -5 13 -6 22 -3 15 6
14 7 -3 14 -28 11 -42 10 -50 -3z"/>
<path d="M749 1257 c-62 -32 -89 -88 -89 -183 0 -142 65 -204 214 -203 45 0
97 5 116 12 33 11 35 14 38 65 2 37 7 52 18 52 10 0 14 12 14 40 l0 40 -95 0
-95 0 0 -40 c0 -30 4 -40 16 -40 9 0 14 -7 12 -17 -4 -22 -57 -30 -69 -11 -11
17 -11 189 0 206 5 8 21 12 37 10 23 -2 30 -9 32 -30 3 -27 5 -28 68 -28 l65
0 -3 63 c-3 61 -4 62 -38 74 -19 7 -71 12 -116 12 -66 1 -89 -3 -125 -22z"/>
<path d="M1080 1235 c0 -25 5 -45 10 -45 6 0 10 -45 10 -115 0 -70 -4 -115
-10 -115 -5 0 -10 -20 -10 -45 l0 -45 80 0 80 0 0 45 c0 25 -5 45 -11 45 -6 0
-9 21 -7 53 3 48 5 52 31 55 27 3 27 2 27 -52 0 -31 -4 -56 -10 -56 -5 0 -10
-20 -10 -45 l0 -45 85 0 85 0 0 40 c0 27 -5 43 -15 46 -11 5 -15 23 -15 79 0
94 -21 125 -84 125 -29 0 -52 -7 -70 -21 l-26 -20 0 80 0 81 -70 0 -70 0 0
-45z"/>
<path d="M2300 1215 l0 -65 45 0 c38 0 45 3 45 20 0 11 7 20 15 20 12 0 15
-19 15 -115 0 -96 -3 -115 -15 -115 -11 0 -15 -12 -15 -45 l0 -45 110 0 110 0
0 41 c0 32 -4 42 -20 46 -19 5 -20 14 -20 119 0 107 1 114 20 114 14 0 20 -7
20 -21 0 -18 5 -20 43 -17 l42 3 3 63 3 62 -201 0 -200 0 0 -65z"/>
<path d="M2720 1235 c0 -25 5 -45 10 -45 6 0 10 -45 10 -115 0 -70 -4 -115
-10 -115 -5 0 -10 -20 -10 -45 l0 -45 80 0 80 0 0 45 c0 25 -5 45 -11 45 -6 0
-9 21 -7 53 3 48 5 52 31 55 27 3 27 2 27 -52 0 -31 -4 -56 -10 -56 -5 0 -10
-20 -10 -45 l0 -45 85 0 85 0 0 40 c0 27 -5 43 -15 46 -11 5 -15 23 -15 79 0
94 -21 125 -84 125 -29 0 -52 -7 -70 -21 l-26 -20 0 80 0 81 -70 0 -70 0 0
-45z"/>
<path d="M4170 1235 c0 -33 4 -45 15 -45 10 0 15 -10 15 -31 0 -31 0 -31 -25
-15 -13 9 -42 16 -63 16 -66 0 -102 -52 -102 -145 0 -93 36 -145 102 -145 21
0 50 7 63 16 23 15 25 15 25 0 0 -13 12 -16 70 -16 l70 0 0 45 c0 25 -4 45
-10 45 -6 0 -10 60 -10 160 l0 160 -75 0 -75 0 0 -45z m25 -220 c0 -47 -2 -50
-27 -53 -28 -3 -28 -3 -28 53 0 56 0 56 28 53 25 -3 27 -6 27 -53z"/>
<path d="M2100 1205 c0 -8 -9 -24 -20 -35 -21 -21 -29 -100 -10 -100 6 0 10
-28 10 -65 0 -106 25 -135 120 -135 71 0 80 6 80 51 0 38 -1 39 -35 39 l-35 0
0 54 c0 54 0 55 33 58 30 3 32 6 35 46 l3 42 -35 0 c-33 0 -36 2 -36 30 0 30
-1 30 -55 30 -42 0 -55 -3 -55 -15z"/>
<path d="M1514 1144 c-93 -45 -92 -214 2 -259 50 -24 144 -20 185 8 43 29 59
60 59 120 0 97 -53 147 -155 147 -33 0 -74 -7 -91 -16z m120 -100 c4 -15 4
-40 1 -56 -6 -24 -11 -29 -33 -26 -23 3 -27 8 -30 42 -4 51 3 66 32 66 17 0
26 -7 30 -26z"/>
<path d="M1823 1141 c-58 -36 -53 -119 9 -145 18 -7 47 -18 63 -23 17 -4 30
-15 30 -23 0 -21 -44 -25 -51 -6 -4 11 -19 16 -51 16 l-44 0 3 -37 c3 -33 7
-38 38 -46 19 -5 66 -7 104 -5 60 3 71 7 92 31 50 58 17 128 -70 150 -52 14
-70 32 -40 44 10 4 22 0 29 -10 8 -11 26 -17 49 -17 35 0 36 1 36 39 0 45 -11
51 -105 51 -42 0 -70 -6 -92 -19z"/>
<path d="M3090 1115 c0 -25 5 -45 10 -45 6 0 10 -25 10 -55 0 -30 -4 -55 -10
-55 -5 0 -10 -20 -10 -45 l0 -45 95 0 95 0 0 45 c0 41 -2 45 -25 45 -21 0 -25
5 -25 30 0 47 42 84 86 77 l34 -6 0 50 0 49 -39 0 c-22 0 -44 -6 -51 -15 -7
-8 -16 -15 -21 -15 -5 0 -9 7 -9 15 0 12 -14 15 -70 15 l-70 0 0 -45z"/>
<path d="M3429 1137 c-44 -29 -59 -60 -59 -122 0 -99 51 -145 160 -145 37 0
81 5 99 11 27 10 31 15 31 49 l0 38 -74 -5 c-68 -5 -75 -4 -85 16 -12 21 -11
21 80 21 l92 0 -7 40 c-15 92 -48 120 -144 120 -45 0 -67 -5 -93 -23z m129
-64 c2 -9 -8 -13 -32 -13 -28 0 -34 3 -29 16 7 18 54 16 61 -3z"/>
<path d="M3718 1153 c-14 -3 -18 -15 -18 -47 l0 -42 72 0 c85 1 106 -19 28
-26 -73 -7 -104 -33 -108 -91 -3 -38 1 -48 20 -61 28 -20 88 -21 114 -1 25 19
34 19 34 0 0 -12 14 -15 65 -15 l65 0 0 45 c0 25 -4 45 -10 45 -6 0 -10 27
-10 60 0 112 -32 141 -157 139 -43 -1 -86 -3 -95 -6z m135 -182 c-7 -26 -29
-33 -43 -16 -16 19 -4 35 25 35 18 0 22 -4 18 -19z"/>
</g>
</svg>
